PathFileType	4	(X/Y/Z)	 s06c0203.trc
DataRate	CameraRate	NumFrames	NumMarkers	Units	OrigDataRate	OrigDataStartFrame	OrigNumFrames
200	200	4	48	mm	200	251	2000
Frame#	Time	racr			lacr			c7			jug			rlel			rdr			llel			ldr			s2			lic			ric			lasi			rasi			rpsi			lpsi			rgt			lgt			rth1			rth2			rth3			rth4			rlfc			rmfc			rsh1			rsh2			rsh3			rsh4			rlmal			rcal			rtoe			rmt5			lth1			lth2			lth4			lth3			llfc			lmfc			llmal			lcal			lmt5			lsh1			lsh2			lsh3			lsh4			ltoe			SBIKE			LBIKE			RBIKE			
		X1	Y1	Z1	X2	Y2	Z2	X3	Y3	Z3	X4	Y4	Z4	X5	Y5	Z5	X6	Y6	Z6	X7	Y7	Z7	X8	Y8	Z8	X9	Y9	Z9	X10	Y10	Z10	X11	Y11	Z11	X12	Y12	Z12	X13	Y13	Z13	X14	Y14	Z14	X15	Y15	Z15	X16	Y16	Z16	X17	Y17	Z17	X18	Y18	Z18	X19	Y19	Z19	X20	Y20	Z20	X21	Y21	Z21	X22	Y22	Z22	X23	Y23	Z23	X24	Y24	Z24	X25	Y25	Z25	X26	Y26	Z26	X27	Y27	Z27	X28	Y28	Z28	X29	Y29	Z29	X30	Y30	Z30	X31	Y31	Z31	X32	Y32	Z32	X33	Y33	Z33	X34	Y34	Z34	X35	Y35	Z35	X36	Y36	Z36	X37	Y37	Z37	X38	Y38	Z38	X39	Y39	Z39	X40	Y40	Z40	X41	Y41	Z41	X42	Y42	Z42	X43	Y43	Z43	X44	Y44	Z44	X45	Y45	Z45	X46	Y46	Z46	X47	Y47	Z47	X48	Y48	Z48	
251	1.2550	430.412030	1348.270455	-45.229248	446.275779	1351.549948	-380.852053	417.245406	1448.149016	-209.491141	450.264483	1292.047518	-206.626898	481.317488	1085.334349	29.358375	683.018795	942.052888	-30.274857	476.723975	1085.551696	-460.530708	673.683756	936.207113	-405.936814	-50.381853	1126.555753	-219.974631	136.414195	1098.898292	-381.060579	105.913062	1103.474932	-45.042852	150.597423	1030.796635	-350.946132	135.842740	1056.870627	-76.313581	-22.952974	1164.242359	-185.106365	-19.391201	1162.577864	-247.497762	74.315214	1042.214630	-12.943239	95.861019	1021.079145	-410.163180	183.327025	975.945803	-9.343895	272.095895	956.950738	-16.450256	335.619255	898.354145	-22.275859	284.233072	987.460815	-36.030708	404.386196	816.886353	-46.436258	400.204164	791.001427	-156.944536	370.499125	700.289634	-17.152487	362.615992	614.608064	-35.858470	316.809124	540.546420	-35.558604	383.301172	611.026294	-69.302501	283.574342	462.128788	-37.708424	216.690647	443.864792	-85.404770	483.137145	374.972841	-101.492358	388.809195	371.886730	-25.602466	149.654926	911.475977	-419.318106	221.487895	862.733467	-410.205158	247.972762	886.124745	-397.463831	259.460983	782.288006	-402.370277	288.343684	677.478144	-373.505560	287.558288	660.216981	-256.443725	31.602606	409.718634	-372.104476	-38.802620	432.500445	-325.883724	79.700225	274.744747	-396.174802	220.397105	597.552985	-397.510356	178.331499	522.901714	-380.507694	102.926305	475.630263	-381.867859	197.732121	509.167821	-349.471172	148.502456	223.012372	-337.565730	-205.283147	866.564051	-203.178574	-52.387366	83.897477	-410.552731	-51.062971	79.911011	-13.649750	
252	1.2600	430.441389	1348.245016	-45.177157	446.315121	1351.538520	-380.816390	417.266659	1448.125549	-209.445736	450.350374	1292.026499	-206.594821	481.292118	1085.278269	29.436387	683.009521	942.030732	-30.269145	476.725868	1085.541917	-460.559184	673.666226	936.162130	-405.923832	-50.371205	1126.548317	-219.996923	136.416008	1098.911038	-381.062545	105.908633	1103.479498	-45.076741	150.569828	1030.784831	-350.944179	135.822207	1056.866344	-76.349691	-22.966389	1164.256542	-185.108960	-19.375803	1162.591726	-247.515242	74.318202	1042.225488	-12.953578	95.849438	1021.096545	-410.167529	183.320735	975.970328	-9.333404	272.098599	956.981225	-16.429081	335.604293	898.389910	-22.254064	284.242747	987.506300	-36.031076	404.384409	816.942655	-46.429750	400.211755	791.051301	-156.946813	370.501973	700.338700	-17.138498	362.620733	614.649630	-35.849868	316.815027	540.587325	-35.559650	383.309375	611.094535	-69.276415	283.598769	462.174486	-37.704682	216.696186	443.920703	-85.409742	483.130257	374.981784	-101.492808	388.808922	371.915092	-25.592104	149.626994	911.496627	-419.320365	221.478084	862.740030	-410.222056	247.953555	886.130804	-397.487540	259.439989	782.310747	-402.394222	288.327475	677.490240	-373.539960	287.560021	660.233730	-256.471879	31.621531	409.712422	-372.109741	-38.780077	432.486598	-325.896485	79.719833	274.724594	-396.191155	220.392299	597.552909	-397.520098	178.345646	522.894645	-380.542084	102.938831	475.624196	-381.900680	197.743964	509.170882	-349.516068	148.523058	222.982154	-337.582192	-205.274144	866.566756	-203.173247	-52.389709	83.911417	-410.557646	-51.078823	79.882966	-13.658620	
253	1.2650	430.486993	1348.188468	-45.105337	446.360752	1351.512685	-380.773506	417.265899	1448.090293	-209.365378	450.386470	1291.993909	-206.534414	481.279651	1085.207175	29.531249	683.011889	941.963743	-30.286307	476.853782	1085.694913	-460.883377	673.669080	936.135674	-405.929418	-50.360990	1126.558208	-220.003374	136.414573	1098.929132	-381.060883	105.899560	1103.464604	-45.110076	150.564196	1030.804905	-350.970334	135.797229	1056.839486	-76.380400	-22.950072	1164.252011	-185.114916	-19.374631	1162.611269	-247.521787	74.337652	1042.243160	-12.965670	95.803490	1021.099017	-410.190788	183.328613	976.007455	-9.351558	272.096570	957.019199	-16.426177	335.608453	898.457579	-22.256012	284.262688	987.560644	-36.019800	404.392157	816.995518	-46.422179	400.232128	791.105840	-156.959629	370.494175	700.371211	-17.135139	362.627117	614.690445	-35.834674	316.812756	540.662636	-35.548830	383.335370	611.151297	-69.256829	283.597884	462.213116	-37.703959	216.706275	443.983106	-85.400749	483.117941	374.995127	-101.491987	388.808276	371.959200	-25.587107	149.594017	911.514869	-419.345985	221.445546	862.750332	-410.245943	247.923040	886.139776	-397.514400	259.419419	782.322468	-402.433741	288.327671	677.494456	-373.563704	287.580795	660.259026	-256.495012	31.641899	409.673575	-372.107404	-38.751656	432.461706	-325.884319	79.715081	274.675722	-396.174885	220.403738	597.553038	-397.564402	178.364165	522.893748	-380.538284	102.960410	475.597338	-381.882542	197.763595	509.170337	-349.514523	148.537633	222.951129	-337.604730	-205.284061	866.563094	-203.180522	-52.392477	83.891790	-410.548046	-51.134291	80.292988	-13.286823	
254	1.2700	430.546723	1348.160737	-45.032168	446.423175	1351.490744	-380.713058	417.296681	1448.069221	-209.294703	450.453677	1291.961458	-206.520115	481.281590	1085.153641	29.616798	682.993513	941.932628	-30.296888	476.722482	1085.520272	-460.624938	673.678809	936.100315	-405.906032	-50.369484	1126.569221	-220.012539	136.400267	1098.941547	-381.049515	105.880684	1103.434703	-45.153315	150.551740	1030.825763	-350.973425	135.743291	1056.785003	-76.420478	-22.945525	1164.259836	-185.120595	-19.353833	1162.604659	-247.538940	74.336919	1042.266744	-12.980770	95.779977	1021.109783	-410.211163	183.351760	976.036822	-9.345639	272.117496	957.057189	-16.407592	335.628029	898.498071	-22.239434	284.266356	987.600935	-36.019315	404.391522	817.034628	-46.423626	400.255471	791.170399	-156.936312	370.487810	700.382295	-17.126234	362.627322	614.761917	-35.831989	316.841501	540.717345	-35.536510	383.354978	611.189546	-69.264238	283.611127	462.257305	-37.688477	216.724368	444.051023	-85.388836	483.135501	375.018635	-101.480505	389.070081	372.568344	-24.984121	149.542306	911.504930	-419.363960	221.411589	862.766032	-410.278290	247.889122	886.149352	-397.534775	259.380316	782.328049	-402.462788	288.315478	677.488333	-373.599120	287.578810	660.258175	-256.517658	31.669168	409.649840	-372.114837	-38.729120	432.417240	-325.874902	79.742532	274.640313	-396.195438	220.407712	597.533683	-397.577500	178.378605	522.881950	-380.563819	102.975478	475.575192	-381.900111	197.778486	509.145013	-349.518564	148.536064	222.895599	-337.598922	-205.278346	866.566787	-203.193024	-52.389624	83.915223	-410.553918	-51.109576	80.282668	-13.278753	
